<?xml version="1.0" encoding="UTF-8" standalone="no"?>
<!DOCTYPE svg PUBLIC "-//W3C//DTD SVG 1.1//EN"
 "http://www.w3.org/Graphics/SVG/1.1/DTD/svg11.dtd">
<!-- Generated by graphviz version 15.0.0 (20260523.1842)
 -->
<!-- Title: G Pages: 1 -->
<svg width="637pt" height="348pt"
 viewBox="0.00 0.00 637.00 348.00" xmlns="http://www.w3.org/2000/svg" xmlns:xlink="http://www.w3.org/1999/xlink">
<g id="graph0" class="graph" transform="scale(1 1) rotate(0) translate(4 343.73)">

<polygon fill="white" stroke="none" points="-4,4 -4,-343.73 633.02,-343.73 633.02,4 -4,4"/>
<!-- node_0 -->
<g id="node_0" class="node">

<g id="a_node_0"><a xlink:title=" &#160;&#160;&#160;&#160;&#160;File &quot;D:\Jiaozi\skrub_pipeline.py&quot;, line 132, in build_pipeline&#10; &#160;&#160;&#160;&#160;&#160;&#160;&#160;msg_var = skrub.var(&quot;user_message&quot;, value=user_message)">
<polygon fill="none" stroke="black" points="100.27,-226.95 4,-226.95 4,-205.56 100.27,-205.56 100.27,-226.95"/>
<polygon fill="none" stroke="black" points="104.27,-230.95 0,-230.95 0,-201.56 104.27,-201.56 104.27,-230.95"/>
<text xml:space="preserve" text-anchor="middle" x="52.13" y="-213.13" font-family="sans-serif" font-size="10.00">Var &#39;user_message&#39;</text>
</a>
</g>
</g>
<!-- node_1 -->
<g id="node_1" class="node">

<g id="a_node_1"><a xlink:title=" &#160;&#160;&#160;&#160;&#160;File &quot;D:\Jiaozi\skrub_pipeline.py&quot;, line 137, in build_pipeline&#10; &#160;&#160;&#160;&#160;&#160;&#160;&#160;m1_output = skrub.deferred(module1_extract)(msg_var)">
<polygon fill="none" stroke="black" points="171.52,-172.56 64.75,-172.56 64.75,-151.17 171.52,-151.17 171.52,-172.56"/>
<text xml:space="preserve" text-anchor="middle" x="118.13" y="-158.74" font-family="sans-serif" font-size="10.00">Call &#39;module1_extract&#39;</text>
</a>
</g>
</g>
<!-- node_0&#45;&gt;node_1 -->
<g id="edge5" class="edge">

<path fill="none" stroke="black" d="M69.82,-201.22C78.83,-194.07 89.79,-185.36 98.99,-178.06"/>
<polygon fill="black" stroke="black" points="100.48,-180 104.44,-173.73 97.44,-176.17 100.48,-180"/>
</g>
<!-- node_10 -->
<g id="node_10" class="node">

<g id="a_node_10"><a xlink:title=" &#160;&#160;&#160;&#160;&#160;File &quot;D:\Jiaozi\skrub_pipeline.py&quot;, line 148, in build_pipeline&#10; &#160;&#160;&#160;&#160;&#160;&#160;&#160;m3_input = skrub.deferred(merge_m1_m2)(m1_output, m2_report)">
<polygon fill="none" stroke="black" points="229.14,-122.17 129.12,-122.17 129.12,-100.78 229.14,-100.78 229.14,-122.17"/>
<text xml:space="preserve" text-anchor="middle" x="179.13" y="-108.35" font-family="sans-serif" font-size="10.00">Call &#39;merge_m1_m2&#39;</text>
</a>
</g>
</g>
<!-- node_1&#45;&gt;node_10 -->
<g id="edge3" class="edge">

<path fill="none" stroke="black" d="M130.77,-150.84C139.2,-144.16 150.43,-135.25 159.95,-127.7"/>
<polygon fill="black" stroke="black" points="161.36,-129.7 165.33,-123.43 158.32,-125.86 161.36,-129.7"/>
</g>
<!-- node_2 -->
<g id="node_2" class="node">

<g id="a_node_2"><a xlink:title=" &#160;&#160;&#160;&#160;&#160;File &quot;D:\Jiaozi\skrub_pipeline.py&quot;, line 133, in build_pipeline&#10; &#160;&#160;&#160;&#160;&#160;&#160;&#160;ds_var = skrub.var(&quot;dataset_id&quot;, value=dataset_id)">
<polygon fill="none" stroke="black" points="364.27,-335.73 286,-335.73 286,-314.34 364.27,-314.34 364.27,-335.73"/>
<polygon fill="none" stroke="black" points="368.27,-339.73 282,-339.73 282,-310.34 368.27,-310.34 368.27,-339.73"/>
<text xml:space="preserve" text-anchor="middle" x="325.13" y="-321.91" font-family="sans-serif" font-size="10.00">Var &#39;dataset_id&#39;</text>
</a>
</g>
</g>
<!-- node_4 -->
<g id="node_4" class="node">

<g id="a_node_4"><a xlink:title=" &#160;&#160;&#160;&#160;&#160;File &quot;D:\Jiaozi\skrub_pipeline.py&quot;, line 140, in build_pipeline&#10; &#160;&#160;&#160;&#160;&#160;&#160;&#160;loaded = skrub.deferred(load_dataset)(ds_var, sub_var)">
<polygon fill="none" stroke="black" points="417.89,-281.34 328.38,-281.34 328.38,-259.95 417.89,-259.95 417.89,-281.34"/>
<text xml:space="preserve" text-anchor="middle" x="373.13" y="-267.52" font-family="sans-serif" font-size="10.00">Call &#39;load_dataset&#39;</text>
</a>
</g>
</g>
<!-- node_2&#45;&gt;node_4 -->
<g id="edge11" class="edge">

<path fill="none" stroke="black" d="M338,-310C344.29,-303.13 351.9,-294.82 358.42,-287.7"/>
<polygon fill="black" stroke="black" points="360.09,-289.5 363.02,-282.69 356.48,-286.19 360.09,-289.5"/>
</g>
<!-- node_3 -->
<g id="node_3" class="node">

<g id="a_node_3"><a xlink:title=" &#160;&#160;&#160;&#160;&#160;File &quot;D:\Jiaozi\skrub_pipeline.py&quot;, line 134, in build_pipeline&#10; &#160;&#160;&#160;&#160;&#160;&#160;&#160;sub_var = skrub.var(&quot;subset&quot;, value=subset)">
<polygon fill="none" stroke="black" points="452.02,-335.73 390.25,-335.73 390.25,-314.34 452.02,-314.34 452.02,-335.73"/>
<polygon fill="none" stroke="black" points="456.02,-339.73 386.25,-339.73 386.25,-310.34 456.02,-310.34 456.02,-339.73"/>
<text xml:space="preserve" text-anchor="middle" x="421.13" y="-321.91" font-family="sans-serif" font-size="10.00">Var &#39;subset&#39;</text>
</a>
</g>
</g>
<!-- node_3&#45;&gt;node_4 -->
<g id="edge12" class="edge">

<path fill="none" stroke="black" d="M408.27,-310C401.98,-303.13 394.37,-294.82 387.85,-287.7"/>
<polygon fill="black" stroke="black" points="389.79,-286.19 383.25,-282.69 386.18,-289.5 389.79,-286.19"/>
</g>
<!-- node_5 -->
<g id="node_5" class="node">

<g id="a_node_5"><a xlink:title=" &#160;&#160;&#160;&#160;&#160;File &quot;D:\Jiaozi\skrub_pipeline.py&quot;, line 141, in build_pipeline&#10; &#160;&#160;&#160;&#160;&#160;&#160;&#160;stats = skrub.deferred(dataset_statistics)(loaded)">
<polygon fill="none" stroke="black" points="230.27,-226.95 122,-226.95 122,-205.56 230.27,-205.56 230.27,-226.95"/>
<text xml:space="preserve" text-anchor="middle" x="176.13" y="-213.13" font-family="sans-serif" font-size="10.00">Call &#39;dataset_statistics&#39;</text>
</a>
</g>
</g>
<!-- node_4&#45;&gt;node_5 -->
<g id="edge10" class="edge">

<path fill="none" stroke="black" d="M335.15,-259.54C302.96,-250.98 256.69,-238.68 222.35,-229.55"/>
<polygon fill="black" stroke="black" points="223.19,-227.23 215.8,-227.8 221.94,-231.97 223.19,-227.23"/>
</g>
<!-- node_6 -->
<g id="node_6" class="node">

<g id="a_node_6"><a xlink:title=" &#160;&#160;&#160;&#160;&#160;File &quot;D:\Jiaozi\skrub_pipeline.py&quot;, line 142, in build_pipeline&#10; &#160;&#160;&#160;&#160;&#160;&#160;&#160;metadata = skrub.deferred(metadata_statistics)(loaded)">
<polygon fill="none" stroke="black" points="365.77,-226.95 248.5,-226.95 248.5,-205.56 365.77,-205.56 365.77,-226.95"/>
<text xml:space="preserve" text-anchor="middle" x="307.13" y="-213.13" font-family="sans-serif" font-size="10.00">Call &#39;metadata_statistics&#39;</text>
</a>
</g>
</g>
<!-- node_4&#45;&gt;node_6 -->
<g id="edge13" class="edge">

<path fill="none" stroke="black" d="M360.41,-259.54C350.73,-251.86 337.25,-241.16 326.28,-232.45"/>
<polygon fill="black" stroke="black" points="328.01,-230.7 321.01,-228.27 324.97,-234.54 328.01,-230.7"/>
</g>
<!-- node_7 -->
<g id="node_7" class="node">

<g id="a_node_7"><a xlink:title=" &#160;&#160;&#160;&#160;&#160;File &quot;D:\Jiaozi\skrub_pipeline.py&quot;, line 143, in build_pipeline&#10; &#160;&#160;&#160;&#160;&#160;&#160;&#160;mode_dist = skrub.deferred(mode_distribution)(loaded)">
<polygon fill="none" stroke="black" points="494.77,-226.95 383.5,-226.95 383.5,-205.56 494.77,-205.56 494.77,-226.95"/>
<text xml:space="preserve" text-anchor="middle" x="439.13" y="-213.13" font-family="sans-serif" font-size="10.00">Call &#39;mode_distribution&#39;</text>
</a>
</g>
</g>
<!-- node_4&#45;&gt;node_7 -->
<g id="edge14" class="edge">

<path fill="none" stroke="black" d="M385.86,-259.54C395.54,-251.86 409.02,-241.16 419.99,-232.45"/>
<polygon fill="black" stroke="black" points="421.3,-234.54 425.26,-228.27 418.26,-230.7 421.3,-234.54"/>
</g>
<!-- node_8 -->
<g id="node_8" class="node">

<g id="a_node_8"><a xlink:title=" &#160;&#160;&#160;&#160;&#160;File &quot;D:\Jiaozi\skrub_pipeline.py&quot;, line 144, in build_pipeline&#10; &#160;&#160;&#160;&#160;&#160;&#160;&#160;fmt_dist = skrub.deferred(format_distribution)(loaded)">
<polygon fill="none" stroke="black" points="629.02,-226.95 513.25,-226.95 513.25,-205.56 629.02,-205.56 629.02,-226.95"/>
<text xml:space="preserve" text-anchor="middle" x="571.13" y="-213.13" font-family="sans-serif" font-size="10.00">Call &#39;format_distribution&#39;</text>
</a>
</g>
</g>
<!-- node_4&#45;&gt;node_8 -->
<g id="edge15" class="edge">

<path fill="none" stroke="black" d="M411.31,-259.54C443.67,-250.98 490.17,-238.68 524.68,-229.55"/>
<polygon fill="black" stroke="black" points="525.13,-231.96 531.28,-227.8 523.88,-227.22 525.13,-231.96"/>
</g>
<!-- node_9 -->
<g id="node_9" class="node">

<g id="a_node_9"><a xlink:title=" &#160;&#160;&#160;&#160;&#160;File &quot;D:\Jiaozi\skrub_pipeline.py&quot;, line 145, in build_pipeline&#10; &#160;&#160;&#160;&#160;&#160;&#160;&#160;m2_report = skrub.deferred(merge_analysis)(stats, metadata, mode_dist, fmt_dist)">
<polygon fill="none" stroke="black" points="358.27,-172.56 256,-172.56 256,-151.17 358.27,-151.17 358.27,-172.56"/>
<text xml:space="preserve" text-anchor="middle" x="307.13" y="-158.74" font-family="sans-serif" font-size="10.00">Call &#39;merge_analysis&#39;</text>
</a>
</g>
</g>
<!-- node_5&#45;&gt;node_9 -->
<g id="edge6" class="edge">

<path fill="none" stroke="black" d="M201.39,-205.15C222.14,-196.86 251.69,-185.04 274.28,-176"/>
<polygon fill="black" stroke="black" points="274.96,-178.37 280.55,-173.5 273.14,-173.82 274.96,-178.37"/>
</g>
<!-- node_6&#45;&gt;node_9 -->
<g id="edge7" class="edge">

<path fill="none" stroke="black" d="M307.13,-205.15C307.13,-198.41 307.13,-189.35 307.13,-181.35"/>
<polygon fill="black" stroke="black" points="309.59,-181.45 307.14,-174.45 304.69,-181.45 309.59,-181.45"/>
</g>
<!-- node_7&#45;&gt;node_9 -->
<g id="edge8" class="edge">

<path fill="none" stroke="black" d="M413.68,-205.15C392.78,-196.86 363,-185.04 340.24,-176"/>
<polygon fill="black" stroke="black" points="341.32,-173.8 333.91,-173.49 339.52,-178.35 341.32,-173.8"/>
</g>
<!-- node_8&#45;&gt;node_9 -->
<g id="edge9" class="edge">

<path fill="none" stroke="black" d="M521.75,-205.12C515.81,-203.91 509.84,-202.7 504.13,-201.56 458.03,-192.32 405.81,-182.07 366.72,-174.45"/>
<polygon fill="black" stroke="black" points="367.42,-172.08 360.08,-173.15 366.48,-176.89 367.42,-172.08"/>
</g>
<!-- node_9&#45;&gt;node_10 -->
<g id="edge4" class="edge">

<path fill="none" stroke="black" d="M280.3,-150.72C260.93,-143.4 234.61,-133.45 213.67,-125.53"/>
<polygon fill="black" stroke="black" points="214.76,-123.32 207.35,-123.14 213.03,-127.91 214.76,-123.32"/>
</g>
<!-- node_11 -->
<g id="node_11" class="node">

<g id="a_node_11"><a xlink:title=" &#160;&#160;&#160;&#160;&#160;File &quot;D:\Jiaozi\skrub_pipeline.py&quot;, line 151, in build_pipeline&#10; &#160;&#160;&#160;&#160;&#160;&#160;&#160;recommendations = skrub.deferred(module3_retrieve)(m3_input)">
<polygon fill="none" stroke="black" points="234.39,-71.78 123.88,-71.78 123.88,-50.39 234.39,-50.39 234.39,-71.78"/>
<text xml:space="preserve" text-anchor="middle" x="179.13" y="-57.96" font-family="sans-serif" font-size="10.00">Call &#39;module3_retrieve&#39;</text>
</a>
</g>
</g>
<!-- node_10&#45;&gt;node_11 -->
<g id="edge2" class="edge">

<path fill="none" stroke="black" d="M179.13,-100.68C179.13,-94.86 179.13,-87.28 179.13,-80.38"/>
<polygon fill="black" stroke="black" points="181.59,-80.71 179.14,-73.71 176.69,-80.71 181.59,-80.71"/>
</g>
<!-- node_12 -->
<g id="node_12" class="node">

<g id="a_node_12"><a xlink:title=" &#160;&#160;&#160;&#160;&#160;File &quot;D:\Jiaozi\skrub_pipeline.py&quot;, line 154, in build_pipeline&#10; &#160;&#160;&#160;&#160;&#160;&#160;&#160;task_lists = skrub.deferred(build_task_lists)(recommendations)">
<polygon fill="none" stroke="black" points="229.14,-21.39 129.12,-21.39 129.12,0 229.14,0 229.14,-21.39"/>
<text xml:space="preserve" text-anchor="middle" x="179.13" y="-7.57" font-family="sans-serif" font-size="10.00">Call &#39;build_task_lists&#39;</text>
</a>
</g>
</g>
<!-- node_11&#45;&gt;node_12 -->
<g id="edge1" class="edge">

<path fill="none" stroke="black" d="M179.13,-50.29C179.13,-44.47 179.13,-36.89 179.13,-29.99"/>
<polygon fill="black" stroke="black" points="181.59,-30.32 179.14,-23.32 176.69,-30.32 181.59,-30.32"/>
</g>
</g>
</svg>
